<svg xmlns="http://www.w3.org/2000/svg" viewBox="4611.615 2380.163 76.536 53.47">
  <defs>
    <style>
      .cls-1 {
        fill: #2e3192;
      }

      .cls-2 {
        fill: #fcaf17;
      }

      .cls-3 {
        fill: #f26522;
      }
    </style>
  </defs>
  <g id="logo_VnW_1_" transform="translate(4633.748 2395.196)">
    <g id="Group_1_1_" transform="translate(-22.133 -15.033)">
      <path id="Path_1_1_" class="cls-1" d="M98.34,47.379a3.84,3.84,0,1,0-3.84-3.84v.024a3.841,3.841,0,0,0,3.815,3.84A.024.024,0,0,1,98.34,47.379Z" transform="translate(-65.972 -26.314)"/>
      <path id="Path_2_1_" class="cls-1" d="M144.046,132.4a3.845,3.845,0,0,0-3.546,2.372h7.068A3.888,3.888,0,0,0,144.046,132.4Z" transform="translate(-100.722 -96.343)"/>
      <path id="Path_3_1_" class="cls-1" d="M226.564,140.1a3.84,3.84,0,1,0-.049,0Z" transform="translate(-162.819 -96.343)"/>
      <path id="Path_4_1_" class="cls-1" d="M253.805,47a2.006,2.006,0,1,0,.049,0Z" transform="translate(-184.802 -31.829)"/>
      <path id="Path_5_1_" class="cls-1" d="M29.663-5.315a3.692,3.692,0,0,0-.2-1.174,5.892,5.892,0,0,0-2.519-7.9,5.892,5.892,0,0,0-7.9,2.519,4.317,4.317,0,0,0-.44,1.1c-.073,0-.147-.024-.22-.024h-4.3a3.3,3.3,0,0,0-2.812,1.565,7.57,7.57,0,0,0-1.052-.049A11.448,11.448,0,0,0,3.763-7.272a3.811,3.811,0,0,0-.489-.391L-.419-9.938a3.113,3.113,0,0,0-1.736-.489A3.3,3.3,0,0,0-4.968-8.862L-8.685-2.845-12.4-8.837a3.272,3.272,0,0,0-4.524-1.076l-3.668,2.3a3.2,3.2,0,0,0-1.467,2.03,3.343,3.343,0,0,0,.391,2.47L-11.546,13.3l-2.886,1.272A3.323,3.323,0,0,0-16.12,18.9l7.312,16.655A3.334,3.334,0,0,0-5.8,37.508h0a3.264,3.264,0,0,0,3.008-1.981L-.468,30.2l2.323,5.332a3.29,3.29,0,0,0,3.008,1.981h0a3.334,3.334,0,0,0,3.008-1.957l2.3-5.234A11.432,11.432,0,0,0,21.1,38.437h.636a3.3,3.3,0,0,0,3.3-3.3V30.953h2.1a3.293,3.293,0,0,0,.954,2.005l2.984,3.008a3.238,3.238,0,0,0,2.323.978h0a3.274,3.274,0,0,0,2.323-.954l.832-.832A11.43,11.43,0,0,0,46.587,14.617a11.159,11.159,0,0,0-5.014-1.149,4.329,4.329,0,0,0-.562.024V11.975a3.155,3.155,0,0,0,.954-.2,3.326,3.326,0,0,0,2.128-2.543,6.9,6.9,0,0,0,2.617.489,3.376,3.376,0,0,0,2.128.807h2.25a3.3,3.3,0,0,0,3.3-3.3V-2.919a3.3,3.3,0,0,0-3.3-3.3h-2.25a3.14,3.14,0,0,0-2.152.807,7.34,7.34,0,0,0-3.766,1.1,3.247,3.247,0,0,0-2.079-.758h-2.25a3.469,3.469,0,0,0-1.639.416l-1.467-1.81A3.3,3.3,0,0,0,32.94-7.639a2.828,2.828,0,0,0-1.1.2,3.3,3.3,0,0,0-2.152,3.082Zm3.277.954,5.649,6.8V-1.794h1.785a7.562,7.562,0,0,0,.489,8.584V8.674l-5.649-6.8V6.13h-2.25L32.94-4.362ZM26.361,9.676h-4.28V-5.315h4.28ZM24.233-11.748A2.568,2.568,0,0,1,26.8-9.18a2.568,2.568,0,0,1-2.568,2.568A2.568,2.568,0,0,1,21.666-9.18a2.583,2.583,0,0,1,2.568-2.568ZM14.084-4.973V-7.468h4.28v19.3h-4.28V9.334a7.915,7.915,0,0,1-3.864,1,8.11,8.11,0,0,1-8.12-8.1V2.217A8.945,8.945,0,0,1,2.369.065L4.3-3.065a2.814,2.814,0,0,0,.293-.611,8.087,8.087,0,0,1,5.6-2.25A7.4,7.4,0,0,1,14.084-4.973ZM-15.19-7.125-8.685,3.391-2.18-7.125l3.5,2.152a12.26,12.26,0,0,0-1.957,3.6l-8.046,13.06-10.2-16.508Zm20.1,41.356L-.443,22-5.8,34.231-13.112,17.6l3.864-1.736L-5.8,23.739-.443,11.511,4.913,23.739l3.448-7.875L12.225,17.6l-.2.416A11.714,11.714,0,0,0,9.9,22.834Zm12.448-6.554A3.873,3.873,0,0,0,21.127,30.9h.636v4.28h-.636a8.11,8.11,0,0,1-8.12-8.1v-2.2a8.6,8.6,0,0,1,.073-1.1l1.81-4.109a8.146,8.146,0,0,1,14.4,5.185v2.3l-.489.489-11.446.024ZM41.6,16.744a8.144,8.144,0,1,1-5.454,14.209L33.4,33.693l-2.91-2.959A3.334,3.334,0,0,0,32.4,28.7l1.027-1.027V12.024h4.28v5.723a8.149,8.149,0,0,1,3.889-1Zm9.538-9.514h-2.25V5.91a3.981,3.981,0,0,1-2.03.514,4.3,4.3,0,0,1-2.69-.954V-1.182a4.162,4.162,0,0,1,2.69-.954,4.541,4.541,0,0,1,2.03.514V-2.943h2.25Z" transform="translate(22.148 15.033)"/>
    </g>
    <g id="Group_5_1_" transform="translate(-18.872 -11.748)">
      <g id="Group_2_1_" transform="translate(0 0)">
        <path id="Path_6_1_" class="cls-2" d="M-16.4,10.116-9.9-.4-6.2,1.9-16.4,18.407-26.6,1.9l3.693-2.3Z" transform="translate(26.6 5.022)"/>
        <path id="Path_7_1_" class="cls-2" d="M75.488-1.8V17.5h-4.28V14.977a7.915,7.915,0,0,1-3.864,1,8.144,8.144,0,1,1,0-16.288,7.659,7.659,0,0,1,3.864,1V-1.8ZM63.48,7.86a3.84,3.84,0,1,0,3.84-3.84,3.831,3.831,0,0,0-3.84,3.84Z" transform="translate(-38.216 6.08)"/>
        <path id="Path_8_1_" class="cls-2" d="M141.768-14.164a2.568,2.568,0,0,1-2.568-2.568,2.568,2.568,0,0,1,2.568-2.568,2.568,2.568,0,0,1,2.568,2.568h0a2.552,2.552,0,0,1-2.568,2.568ZM143.9,2.124h-4.28V-12.868h4.28Z" transform="translate(-98.651 19.3)"/>
      </g>
      <g id="Group_4_1_" transform="translate(5.804 23.266)">
        <g id="Group_3_1_" transform="translate(0 0)">
          <path id="Path_9_1_" class="cls-2" d="M-26.888-37.872-21.532-50.1l5.356,12.228,3.448-7.875,3.864,1.736-7.312,16.63-5.356-12.228L-26.888-27.38-34.2-44.01l3.864-1.736Z" transform="translate(34.2 50.1)"/>
          <path id="Path_10_1_" class="cls-2" d="M80.62-14.64h.636v4.28H80.62a8.11,8.11,0,0,1-8.12-8.1v-2.2A8.141,8.141,0,0,1,80.644-28.8a8.141,8.141,0,0,1,8.144,8.144v2.812H76.829A3.921,3.921,0,0,0,80.62-14.64Zm.049-9.856a3.845,3.845,0,0,0-3.546,2.372h7.092A3.909,3.909,0,0,0,80.668-24.5Z" transform="translate(-46.405 34.009)"/>
          <path id="Path_11_1_" class="cls-2" d="M154.952-43.28a8.141,8.141,0,0,1,8.144,8.144,8.141,8.141,0,0,1-8.144,8.144,8.156,8.156,0,0,1-5.454-2.079l-2.715,2.739L143.8-29.34l2.984-3.008V-48h4.28v5.723A7.813,7.813,0,0,1,154.952-43.28Zm-3.864,8.144a3.857,3.857,0,0,0,3.864,3.864,3.857,3.857,0,0,0,3.864-3.864A3.857,3.857,0,0,0,154.952-39h0a3.862,3.862,0,0,0-3.864,3.815v.049Z" transform="translate(-100.267 48.514)"/>
        </g>
      </g>
    </g>
    <g id="Group_6_1_" transform="translate(32.989 -4.367)">
      <path id="Path_12_1_" class="cls-3" d="M-87.2-16.165l-5.649-6.8v4.255H-95.1V-29.2l5.649,6.823v-4.231h2.25Z" transform="translate(95.1 29.2)"/>
      <path id="Path_13_1_" class="cls-3" d="M-47.24-23.3v10.149h-2.25v-1.321a3.981,3.981,0,0,1-2.03.514,4.233,4.233,0,0,1-4.28-4.255,4.285,4.285,0,0,1,4.28-4.28,4.541,4.541,0,0,1,2.03.514V-23.3Zm-6.285,5.087a2.02,2.02,0,0,0,2.03,2.005,2.02,2.02,0,0,0,2.005-2.03,2.02,2.02,0,0,0-2.03-2.005,2,2,0,0,0-2.005,2.005Z" transform="translate(65.411 24.743)"/>
    </g>
  </g>
</svg>
