<svg xmlns="http://www.w3.org/2000/svg" viewBox="6438.667 2533.355 107.951 307.845">
  <defs>
    <style>
      .cls-1 {
        fill: #f26522;
      }

      .cls-2 {
        fill: #fff;
      }

      .cls-3 {
        fill: none;
      }

      .cls-4 {
        fill: #303681;
      }

      .cls-5 {
        fill: #2e3192;
      }

      .cls-6 {
        fill: #e4a633;
      }

      .cls-7 {
        fill: #fcaf17;
      }
    </style>
  </defs>
  <g id="Group_2438" data-name="Group 2438" transform="translate(6438.667 2533.355)">
    <path id="Path_2_1_" class="cls-1" d="M66.423,144.987a10.213,10.213,0,0,1-4.548-9.379c.284-14.779,0-29.559,0-44.338V45.511c0-2.842-.853-3.411-3.411-3.411-9.663.284-19.327.284-28.706,0-2.842,0-3.979.568-3.695,3.695.284,29.559,0,59.4.284,88.961a12.783,12.783,0,0,1-5.684,11.085,36.851,36.851,0,0,0-14.5,36.949c2.842,21.032,22.453,35.243,43.486,32.117a45.433,45.433,0,0,0,5.969-1.421c16.2-4.832,27.569-20.18,27-36.949A37.32,37.32,0,0,0,66.423,144.987Zm7.105,32.4a29.782,29.782,0,0,1-28.706,28.706,7.643,7.643,0,0,1-8.242-6.821,7.326,7.326,0,0,1,6.537-7.958h1.137a14.54,14.54,0,0,0,14.211-13.643,10.488,10.488,0,0,1,2.842-6.821,6.451,6.451,0,0,1,7.674-1.137,6.928,6.928,0,0,1,4.548,7.674Z" transform="translate(10.178 77.556)"/>
    <path id="Path_4_1_" class="cls-2" d="M48.8,87.412a6.451,6.451,0,0,0-7.674,1.137,9.925,9.925,0,0,0-2.842,6.821,14.98,14.98,0,0,1-14.211,13.643,7.732,7.732,0,0,0-7.674,7.105v.853a7.269,7.269,0,0,0,8.242,6.821A30.2,30.2,0,0,0,53.349,95.086C53.917,91.959,51.927,88.833,48.8,87.412Z" transform="translate(30.358 159.575)"/>
    <path id="Path_2421" data-name="Path 2421" class="cls-3" d="M18.768,26.9c-.284,0-.284.284-.568.284C18.484,27.184,18.484,26.9,18.768,26.9Z" transform="translate(33.674 49.555)"/>
    <path id="Path_2422" data-name="Path 2422" class="cls-3" d="M25.668,19.726c0,.853,0,1.421-.568,1.705a2.4,2.4,0,0,0,.568-1.705V16.6h0A11.517,11.517,0,0,0,25.668,19.726Z" transform="translate(46.385 30.58)"/>
    <path id="Path_2423" data-name="Path 2423" class="cls-3" d="M17.7,28.053l.853-.853Z" transform="translate(32.752 50.108)"/>
    <path id="Path_2424" data-name="Path 2424" class="cls-3" d="M17.9,19.484l.284-.284Z" transform="translate(33.121 35.37)"/>
    <path id="Path_2425" data-name="Path 2425" class="cls-3" d="M17.2,31.863a7.238,7.238,0,0,0,7.674,7.39h12.79c1.705,0,2.558.284,2.274,2.274-.284,3.126,0,6.537,0,9.948,0,1.137,0,1.705-.853,1.99.853-.284,1.137-.853,1.137-2.274,0-3.126-.284-6.537,0-9.948,0-1.99-.568-2.274-2.274-2.274H25.158A7.269,7.269,0,0,1,17.2,31.863v-.284A6.791,6.791,0,0,1,18.621,27.6,6.4,6.4,0,0,0,17.2,31.863Z" transform="translate(31.831 50.845)"/>
    <path id="Path_2426" data-name="Path 2426" class="cls-3" d="M17.2,23.779a7.666,7.666,0,0,0,8.242,7.105c4.263,0,8.527.284,12.506,0,1.705,0,2.274.568,2.274,2.274,0,2.842,0,4.263-.568,4.832.853-.568.568-1.99.568-4.832,0-1.705-.284-2.274-2.274-2.274H24.874A7.642,7.642,0,0,1,17.2,23.211v-.568a4.8,4.8,0,0,1,.853-2.842,6.751,6.751,0,0,0-.853,3.411C17.2,23.495,17.2,23.779,17.2,23.779Z" transform="translate(31.831 36.475)"/>
    <path id="Path_2427" data-name="Path 2427" class="cls-3" d="M18.8,26.6Z" transform="translate(34.779 49.002)"/>
    <path id="Path_2428" data-name="Path 2428" class="cls-3" d="M24.9,18.4Z" transform="translate(46.016 33.896)"/>
    <path id="Path_2429" data-name="Path 2429" class="cls-3" d="M66.423,144.987a10.213,10.213,0,0,1-4.548-9.379c.284-14.779,0-29.559,0-44.338V45.511c0-2.842-.853-3.411-3.411-3.411-9.663.284-19.327.284-28.706,0-2.842,0-3.695.568-3.695,3.695.284,29.559,0,59.4.284,88.961a12.783,12.783,0,0,1-5.684,11.085,36.851,36.851,0,0,0-14.5,36.949,12.6,12.6,0,0,0,.853,5.684A38.36,38.36,0,0,0,55.338,213.2a37.208,37.208,0,0,0,27-36.949A36.569,36.569,0,0,0,66.423,144.987Z" transform="translate(10.178 77.556)"/>
    <path id="Path_2430" data-name="Path 2430" class="cls-3" d="M18.4,18.8Z" transform="translate(34.042 34.633)"/>
    <path id="Path_2431" data-name="Path 2431" class="cls-3" d="M18.068,19.5c-.284.284-.284.568-.568.853C17.784,20.068,18.068,19.784,18.068,19.5Z" transform="translate(32.384 35.923)"/>
    <path id="Path_2432" data-name="Path 2432" class="cls-4" d="M25.2,15.553V20.1h0V14.7C25.484,14.984,25.484,15.553,25.2,15.553Z" transform="translate(46.569 27.08)"/>
    <path id="Path_2433" data-name="Path 2433" class="cls-5" d="M89.339,213.449a5.951,5.951,0,0,1-2.274-5.4V35.243a27.576,27.576,0,0,0-.284-4.832v-16.2A14.073,14.073,0,0,0,72.57,0H35.053A14.073,14.073,0,0,0,20.842,14.211V208.049a7.155,7.155,0,0,1-2.558,5.684A52.407,52.407,0,0,0,1.231,265.177a52.928,52.928,0,0,0,59.686,42.064c22.453-3.126,37.8-15.916,44.338-37.517S106.108,228.8,89.339,213.449ZM66.318,13.927A5.7,5.7,0,0,1,72,19.611v30.7a2.4,2.4,0,0,1-.568,1.705c-.284,0-.284.284-.568.284H56.938a7.4,7.4,0,0,0-4.263,1.137h0l-.853.853-.284.284-.568.568c-.284.284-.284.568-.568.853a.278.278,0,0,1-.284.284c-.284.853-.568,1.705-.853,2.842v.568a7.642,7.642,0,0,0,7.674,7.674H70.012c1.705,0,2.274.568,2.274,2.274,0,2.842,0,4.263-.568,4.832-.568.853-1.99.853-5.116.853H56.654a8.409,8.409,0,0,0-2.842.568h0c-.284.284-.853.284-1.137.568-.284,0-.284.284-.568.284l-.568.568-.853.853h0a6.791,6.791,0,0,0-1.421,3.979v.284A7.642,7.642,0,0,0,56.938,90.1h12.79c1.705,0,2.558.284,2.274,2.274-.284,3.126,0,6.537,0,9.948,0,1.137,0,1.99-1.137,2.274-.284,0-.568.284-1.137.284H37.9c-1.99,0-2.274-.853-2.274-2.558V19.611a5.7,5.7,0,0,1,5.684-5.684Zm-.853,276.83a38.36,38.36,0,0,1-48.317-24.727,45.43,45.43,0,0,1-1.421-5.969,36.44,36.44,0,0,1,14.5-36.949,13.115,13.115,0,0,0,5.684-11.085c-.284-29.559,0-59.4-.284-88.961,0-3.126.853-3.695,3.695-3.695,9.663.284,19.327.284,28.706,0,2.558,0,3.695.568,3.411,3.411-.284,15.348,0,30.411,0,45.759V212.88a10.213,10.213,0,0,0,4.548,9.379,37.178,37.178,0,0,1,16.2,31.264A36.755,36.755,0,0,1,65.465,290.756Z" transform="translate(0.051)"/>
    <path id="Path_2434" data-name="Path 2434" class="cls-6" d="M17.5,19.8Z" transform="translate(32.384 36.475)"/>
    <path id="Path_2435" data-name="Path 2435" class="cls-6" d="M18.268,19.3l-.568.568Z" transform="translate(32.752 35.554)"/>
    <path id="Path_2436" data-name="Path 2436" class="cls-6" d="M21.926,26.953a10.218,10.218,0,0,0-3.126.568,10.1,10.1,0,0,1,2.842-.568H31.59c2.842,0,4.263,0,5.116-.853-.568.568-1.99.568-4.832.568C28.463,26.953,25.337,26.953,21.926,26.953Z" transform="translate(34.779 48.081)"/>
    <path id="Path_2437" data-name="Path 2437" class="cls-6" d="M25.468,18.3c-.284,0-.284.284-.568.284C25.184,18.584,25.184,18.3,25.468,18.3Z" transform="translate(46.016 33.712)"/>
    <path id="Path_2438" data-name="Path 2438" class="cls-6" d="M23.048,18.4A7.748,7.748,0,0,0,18.5,19.537,6.85,6.85,0,0,1,22.763,18.4Z" transform="translate(34.226 33.896)"/>
    <path id="Path_2439" data-name="Path 2439" class="cls-6" d="M14.874,74.012c-1.99,0-2.274-.853-2.274-2.558V16.6h0V36.78c.284,11.653.284,23.306,0,34.675,0,1.705,0,2.558,2.274,2.558H46.706c.568,0,.853,0,1.137-.284H46.706C35.906,73.728,25.39,73.728,14.874,74.012Z" transform="translate(23.357 30.58)"/>
    <path id="Path_2440" data-name="Path 2440" class="cls-6" d="M18,19.653l.853-.853C18.853,19.084,18.284,19.368,18,19.653Z" transform="translate(33.305 34.633)"/>
    <path id="Path_2441" data-name="Path 2441" class="cls-6" d="M18,27.568,18.568,27Z" transform="translate(33.305 49.739)"/>
    <path id="Path_2442" data-name="Path 2442" class="cls-6" d="M17.7,27.5Z" transform="translate(32.752 50.66)"/>
    <path id="Path_2443" data-name="Path 2443" class="cls-6" d="M19.537,26.7c-.284.284-.853.284-1.137.568A2.155,2.155,0,0,1,19.537,26.7Z" transform="translate(34.042 49.187)"/>
    <path id="Path_2444" data-name="Path 2444" class="cls-7" d="M48.7,32.469V10.584A5.7,5.7,0,0,0,43.011,4.9H18.284A5.7,5.7,0,0,0,12.6,10.584V38.438h0V93.292c0,1.421,0,2.558,2.274,2.558H47.843c.853-.284,1.137-.853.853-1.99,0-3.126-.284-6.537,0-9.948,0-1.99-.568-2.274-2.274-2.274H33.632a7.586,7.586,0,0,1-7.674-7.39h0A8.589,8.589,0,0,1,27.379,69.7h0l.853-.853.568-.568c.284,0,.284-.284.568-.284a2.155,2.155,0,0,1,1.137-.568h0a6.12,6.12,0,0,1,3.126-.568H43.3c2.842,0,4.263,0,4.832-.568s.568-1.99.568-4.832c0-1.705-.284-2.274-2.274-2.274-4.263.284-8.527,0-12.506,0a7.666,7.666,0,0,1-8.242-7.105v-.568a7.568,7.568,0,0,1,.853-3.411.278.278,0,0,1,.284-.284c.284-.284.284-.568.568-.853l.568-.568.284-.284.853-.853h0a6.47,6.47,0,0,1,4.548-1.137H47.275c.284,0,.568,0,.568-.284a2.4,2.4,0,0,0,.568-1.705V33.606C48.7,32.753,48.7,32.753,48.7,32.469Z" transform="translate(23.357 9.027)"/>
  </g>
</svg>
